<?xml version="1.0" encoding="UTF-8"?>
<svg version="1.1" xmlns="http://www.w3.org/2000/svg" width="2048" height="2048">
<path d="M0 0 C3.68887201 2.92377263 4.0747168 6.19578397 4.73468018 10.68295288 C5.68047098 22.50729605 1.68613583 35.69041352 -0.421875 47.3359375 C-0.7618018 49.2250863 -1.10146042 51.11428338 -1.44087219 53.00352478 C-2.16419092 57.02777063 -2.88882697 61.05177592 -3.61453247 65.07559204 C-5.55592718 75.84212081 -7.48717534 86.6104721 -9.41796875 97.37890625 C-9.61350782 98.46914534 -9.8090469 99.55938442 -10.0105114 100.68266106 C-13.75197589 121.54933411 -17.42348701 142.42774997 -21.0625 163.3125 C-22.19838026 169.82957347 -23.33491521 176.34653236 -24.47265625 182.86328125 C-24.6143713 183.67501549 -24.75608635 184.48674973 -24.90209579 185.32308197 C-28.55276688 206.22401669 -32.27783714 227.11170303 -36 248 C-41.78231334 280.45208502 -47.51113069 312.91304134 -53.17236328 345.38647461 C-53.73068497 348.58839798 -54.28912856 351.79030006 -54.84765625 354.9921875 C-55.0499585 356.1521672 -55.0499585 356.1521672 -55.25634766 357.33558083 C-57.10274489 367.91840486 -58.97512206 378.4962627 -60.87109375 389.0703125 C-61.30350139 391.48900749 -61.73587571 393.90770843 -62.16821289 396.32641602 C-62.94336241 400.66146005 -63.72601297 404.99505012 -64.51342773 409.32788086 C-64.85038517 411.20942119 -65.18707412 413.09100963 -65.5234375 414.97265625 C-65.67578354 415.7977066 -65.82812958 416.62275696 -65.98509216 417.47280884 C-67.53448555 425.30342759 -67.53448555 425.30342759 -66.1965332 432.9777832 C-65.81843506 433.49687256 -65.44033691 434.01596191 -65.05078125 434.55078125 C-64.62249023 435.15583496 -64.19419922 435.76088867 -63.75292969 436.38427734 C-63.27758789 437.02059082 -62.80224609 437.6569043 -62.3125 438.3125 C-61.81266602 439.01068848 -61.31283203 439.70887695 -60.79785156 440.42822266 C-59.21520417 442.63146798 -57.61062512 444.81714666 -56 447 C-54.07846579 449.62146998 -52.1626394 452.24703409 -50.25 454.875 C-49.73284424 455.58309814 -49.21568848 456.29119629 -48.68286133 457.02075195 C-42.21739779 465.95270107 -36.11762117 475.13518485 -29.96426392 484.28311157 C-24.57112741 492.29743488 -19.18254966 500.29407947 -13.4375 508.0625 C-6.76658466 517.08338399 -0.6620164 526.48109029 5.52487183 535.83624268 C11.13455995 544.31035942 16.78589838 552.679864 23.00585938 560.72314453 C28.22619793 567.49932635 32.84624999 574.66731123 37.54736328 581.80810547 C42.90343173 589.88991766 48.45733902 597.8413952 54.07397461 605.74365234 C60.4181804 614.66963816 66.56655643 623.72102852 72.69271851 632.79714966 C77.45378467 639.84548446 82.26305902 646.84115567 87.3125 653.6875 C94.05831738 662.84158529 100.25713438 672.35726256 106.52679443 681.83963013 C114.19697601 693.4333446 114.19697601 693.4333446 122.4375 704.625 C127.31868549 710.9182459 131.75240616 717.46904977 136.125 724.125 C137.10424438 725.60347412 137.10424438 725.60347412 138.10327148 727.11181641 C138.71114502 728.04687012 139.31901855 728.98192383 139.9453125 729.9453125 C140.75766357 731.19078857 140.75766357 731.19078857 141.58642578 732.46142578 C144.2338844 737.21587738 145.4839705 741.55533183 145 747 C144.34 747.99 143.68 748.98 143 750 C142.34 750 141.68 750 141 750 C141 750.66 141 751.32 141 752 C136.71018094 753.17685831 132.55127059 753.35056711 128.125 753.5625 C126.99771484 753.62727539 126.99771484 753.62727539 125.84765625 753.69335938 C119.53717904 754.0083832 113.2385227 754.00925655 106.92247009 753.98951721 C95.89711018 753.97381091 84.88054814 754.13443885 73.85766602 754.35131836 C71.84829544 754.38928504 69.83892133 754.42706491 67.82954407 754.4646759 C63.54221299 754.54531596 59.25490923 754.6272411 54.96762276 754.71021843 C48.11419219 754.84284571 41.26070609 754.97243972 34.4072113 755.10169983 C23.49339143 755.30788361 12.57960957 755.5160068 1.66584295 755.72498852 C-19.99336087 756.1397065 -41.65262497 756.55125635 -63.31192064 756.96114779 C-66.80019669 757.02718478 -70.2884708 757.09332308 -73.77674484 757.15946579 C-109.85015366 757.84288257 -145.92391989 758.47481835 -182 759 C-182.45361656 760.15826797 -182.45361656 760.15826797 -182.91639709 761.3399353 C-184.05237462 764.12857097 -185.39589398 766.66465839 -186.87109375 769.2890625 C-187.43948975 770.30282959 -188.00788574 771.31659668 -188.59350586 772.36108398 C-189.50628296 773.97672241 -189.50628296 773.97672241 -190.4375 775.625 C-191.06857666 776.74656494 -191.69965332 777.86812988 -192.34985352 779.02368164 C-197.3316443 787.85941752 -202.39286037 796.64672715 -207.49707031 805.41210938 C-210.44947837 810.49585294 -213.37826057 815.5932564 -216.3125 820.6875 C-221.22045595 829.20499769 -226.15905808 837.70369786 -231.125 846.1875 C-236.20179528 854.86470822 -241.17883065 863.59328668 -246.10595703 872.35620117 C-250.00500078 879.27662018 -253.98397785 886.14689005 -258 893 C-262.54427086 900.75600646 -267.0287278 908.54115868 -271.4375 916.375 C-277.90506206 927.86620787 -284.49008861 939.28767743 -291.09277344 950.70166016 C-294.23278942 956.13197453 -297.36610948 961.56614907 -300.5 967 C-303.99648456 973.06133849 -307.49319159 979.1225477 -310.9919281 985.18258667 C-321.03201808 1002.57060073 -321.03201808 1002.57060073 -331 1020 C-331.66 1020 -332.32 1020 -333 1020 C-333.2475 1020.598125 -333.495 1021.19625 -333.75 1021.8125 C-335.28523945 1024.49916904 -336.2508993 1025.53673321 -339 1027 C-341.83787439 1026.80908845 -344.23389037 1026.43201276 -346.984375 1025.8046875 C-348.27381012 1025.52756424 -348.27381012 1025.52756424 -349.58929443 1025.24484253 C-364.07997443 1022.00252623 -378.36874785 1017.83359303 -392.66718674 1013.84450531 C-397.07616657 1012.61627699 -401.48750654 1011.39658537 -405.89868164 1010.17626953 C-412.33912281 1008.39392114 -418.77894299 1006.60936274 -425.21793842 1004.82179832 C-441.62373516 1000.26759528 -458.04054918 995.75366488 -474.45840454 991.24316406 C-479.47017328 989.86619239 -484.48157062 988.48787225 -489.49291992 987.109375 C-505.39144047 982.73646625 -521.29150389 978.36926531 -537.1953125 974.015625 C-538.30559185 973.71168351 -538.30559185 973.71168351 -539.43830109 973.40160179 C-543.16465661 972.38153804 -546.89103928 971.36157348 -550.61743164 970.34164429 C-552.09912131 969.93609696 -553.58081076 969.53054887 -555.0625 969.125 C-555.78970245 968.92596195 -556.51690491 968.7269239 -557.2661438 968.5218544 C-584.49886438 961.06777047 -611.72013407 953.57244396 -638.9375 946.0625 C-639.88406086 945.80133644 -640.83062172 945.54017288 -641.80586624 945.27109528 C-648.12981705 943.52623486 -654.45362856 941.78087038 -660.77734375 940.03515625 C-661.57885738 939.8139253 -662.38037102 939.59269436 -663.20617294 939.36475945 C-664.75992515 938.9358643 -666.31362323 938.50677301 -667.86726379 938.07747364 C-669.35870316 937.6658637 -670.85044731 937.25535635 -672.34251404 936.84602642 C-676.19968492 935.78565055 -680.04715516 934.69922098 -683.88650513 933.57589722 C-684.69268815 933.34324126 -685.49887117 933.11058531 -686.32948399 932.87087917 C-687.85942303 932.42866997 -689.38733622 931.97936051 -690.91263485 931.52140141 C-697.39888276 929.65989452 -703.13552078 929.64202783 -709.76635742 931.00634766 C-710.8566777 931.22723053 -711.94699799 931.4481134 -713.07035828 931.6756897 C-714.23694473 931.91935272 -715.40353119 932.16301575 -716.60546875 932.4140625 C-717.83872391 932.666185 -719.07197906 932.9183075 -720.34260559 933.17807007 C-723.62904467 933.85143093 -726.91412422 934.53080675 -730.19873047 935.2130127 C-733.43408308 935.88323827 -736.6712573 936.54455018 -739.90820312 937.20703125 C-754.93123672 940.28979868 -769.93227938 943.46990782 -784.92504883 946.69628906 C-791.85947443 948.18747772 -798.80162275 949.63765362 -805.75 951.0625 C-815.70535917 953.1054363 -815.70535917 953.1054363 -825.6484375 955.20703125 C-841.30549243 958.556704 -857.03992668 961.45767121 -872.78340149 964.36628723 C-874.18805916 964.62583443 -874.18805916 964.62583443 -875.62109375 964.890625 C-876.56385666 965.06482468 -877.50661957 965.23902435 -878.47795105 965.41850281 C-894.51312083 968.38571435 -910.52925055 971.45437792 -926.54418945 974.52862549 C-928.93107551 974.98677046 -931.31807451 975.44432349 -933.70507812 975.90185547 C-974.30491499 983.69088172 -1014.76329598 992.09994516 -1055.0703125 1001.2890625 C-1058.40090887 1002.04745969 -1061.73165516 1002.80519487 -1065.0625 1003.5625 C-1065.88164886 1003.74898102 -1066.70079773 1003.93546204 -1067.54476929 1004.12759399 C-1081.07811723 1007.2010607 -1094.65939714 1009.96031748 -1108.27966309 1012.6187439 C-1120.32746605 1014.97669625 -1132.23805112 1017.6217028 -1144.11425781 1020.74267578 C-1163.93074862 1025.94552141 -1163.93074862 1025.94552141 -1171 1023 C-1174.6026818 1020.59821213 -1174.56592309 1019.85380871 -1175.43408203 1015.76416016 C-1175.78791458 1014.13756973 -1175.78791458 1014.13756973 -1176.14889526 1012.4781189 C-1176.5121843 1010.71391098 -1176.5121843 1010.71391098 -1176.8828125 1008.9140625 C-1177.1429715 1007.69562653 -1177.40313049 1006.47719055 -1177.6711731 1005.22183228 C-1178.46332221 1001.48431854 -1179.23565141 997.7432904 -1180 994 C-1180.21474976 992.95017944 -1180.42949951 991.90035889 -1180.65075684 990.81872559 C-1181.87925775 984.77074014 -1183.06741751 978.71534636 -1184.2399292 972.65628052 C-1185.14451974 967.98244681 -1186.05740937 963.31024223 -1186.96963501 958.63789368 C-1187.47502876 956.04916878 -1187.98009905 953.46038297 -1188.48471069 950.87150574 C-1191.73135264 934.22141702 -1195.02336554 917.58026165 -1198.31256104 900.9385376 C-1199.18333797 896.53277367 -1200.05349958 892.1268885 -1200.92345619 887.72096252 C-1202.6644083 878.90405174 -1204.40785232 870.08763822 -1206.1541748 861.27178955 C-1206.70326394 858.49961417 -1207.25153785 855.72727992 -1207.7989502 852.95477295 C-1208.50213028 849.39525871 -1209.20769769 845.83622714 -1209.9140625 842.27734375 C-1210.21538589 840.74805992 -1210.21538589 840.74805992 -1210.52279663 839.18788147 C-1210.70557159 838.26986252 -1210.88834656 837.35184357 -1211.07666016 836.40600586 C-1211.23236481 835.61979355 -1211.38806946 834.83358124 -1211.54849243 834.02354431 C-1212.00550318 831.8134212 -1212.00550318 831.8134212 -1213 829 C-1214.73229696 827.88016413 -1214.73229696 827.88016413 -1216.91015625 827.01953125 C-1218.13484619 826.48694702 -1218.13484619 826.48694702 -1219.38427734 825.94360352 C-1220.26809082 825.57033936 -1221.1519043 825.1970752 -1222.0625 824.8125 C-1223.91135047 824.00794709 -1225.75899621 823.20062044 -1227.60546875 822.390625 C-1228.52505371 821.98779297 -1229.44463867 821.58496094 -1230.39208984 821.16992188 C-1233.9445885 819.57625275 -1237.41200206 817.84045327 -1240.875 816.0625 C-1248.09628405 812.3754104 -1255.45879391 809.04058987 -1262.85351562 805.71777344 C-1269.08557888 802.90489986 -1275.21051847 799.9369876 -1281.30029297 796.83032227 C-1286.49651999 794.20020736 -1291.7934047 791.86665006 -1297.14428711 789.57128906 C-1302.66965456 787.1853811 -1308.03205457 784.53027702 -1313.3984375 781.8046875 C-1317.95302568 779.50355397 -1322.57531568 777.35004396 -1327.19775391 775.18945312 C-1331.15582219 773.33865299 -1335.10686142 771.47492345 -1339.046875 769.5859375 C-1348.58843807 765.01208214 -1358.16476994 760.5529226 -1367.83349609 756.25415039 C-1372.9423683 753.96823039 -1377.95677036 751.55170697 -1382.9375 749 C-1395.17681526 742.76735931 -1407.86960614 737.54363612 -1420.7043457 732.67358398 C-1431.50079909 728.56636511 -1441.63093042 723.83246048 -1451.73583984 718.24511719 C-1455.52876127 716.15929669 -1459.35966509 714.14578594 -1463.1875 712.125 C-1463.8582959 711.76792969 -1464.5290918 711.41085937 -1465.22021484 711.04296875 C-1469.13941309 708.9600657 -1473.08468982 706.93986625 -1477.05932617 704.96484375 C-1478.86742626 704.06591162 -1480.67026283 703.15641394 -1482.47265625 702.24609375 C-1498.4488629 694.18439819 -1514.58543405 686.4713791 -1530.93701172 679.20117188 C-1536.63784026 676.65227113 -1542.22127227 673.92653231 -1547.78295898 671.08911133 C-1553.4470014 668.22285883 -1559.21111889 665.60321652 -1565 663 C-1571.74807462 659.95520813 -1578.47824072 656.88614407 -1585.125 653.625 C-1585.76953125 653.315625 -1586.4140625 653.00625 -1587.078125 652.6875 C-1590.65806316 650.9052797 -1593.45843379 649.10975289 -1596 646 C-1597.21275531 641.23560415 -1597.20061165 638.36673096 -1595 634 C-1588.20538681 627.25380449 -1578.10069207 623.27661758 -1569.69921875 618.953125 C-1564.10775968 616.07177774 -1558.57849975 613.08535072 -1553.0625 610.0625 C-1552.155 609.56548584 -1551.2475 609.06847168 -1550.3125 608.55639648 C-1548.46932559 607.546333 -1546.62638982 606.53583394 -1544.78369141 605.52490234 C-1541.97676254 603.98727055 -1539.16670704 602.45551848 -1536.35546875 600.92578125 C-1527.92606488 596.33870925 -1519.50561507 591.73820062 -1511.125 587.0625 C-1504.19481676 583.19746994 -1497.22974662 579.39974391 -1490.25 575.625 C-1488.72379028 574.79947632 -1488.72379028 574.79947632 -1487.16674805 573.95727539 C-1485.11331497 572.84678009 -1483.05984828 571.73634696 -1481.00634766 570.62597656 C-1473.61194941 566.62673242 -1466.22378168 562.61711093 -1458.85742188 558.56640625 C-1456.84841463 557.46509127 -1454.83641831 556.36922 -1452.82226562 555.27734375 C-1449.6036221 553.530793 -1446.39488813 551.76711753 -1443.1875 550 C-1442.18388428 549.45988281 -1441.18026855 548.91976562 -1440.14624023 548.36328125 C-1439.22528564 547.85152344 -1438.30433105 547.33976563 -1437.35546875 546.8125 C-1436.53715576 546.36519531 -1435.71884277 545.91789063 -1434.87573242 545.45703125 C-1432.53305518 543.63728665 -1432.52083734 542.88096227 -1432 540 C-1431.77577899 537.84307241 -1431.59147309 535.68188522 -1431.4309082 533.51928711 C-1431.38173972 532.86981361 -1431.33257124 532.22034012 -1431.2819128 531.55118561 C-1431.11818503 529.37680803 -1430.95947474 527.20209411 -1430.80078125 525.02734375 C-1430.68458841 523.46938503 -1430.56810577 521.91144789 -1430.45135498 520.35353088 C-1430.134144 516.10786498 -1429.8214327 511.8618782 -1429.50960159 507.61581421 C-1429.24429642 504.01071587 -1428.97642011 500.40581039 -1428.70855618 496.80090141 C-1426.79443518 471.03628593 -1424.92277414 445.26855244 -1423.0625 419.5 C-1423.00240376 418.66761433 -1422.94230751 417.83522865 -1422.88039017 416.97761917 C-1421.61218599 399.40951144 -1420.34676039 381.84120511 -1419.08740234 364.27246094 C-1418.37746837 354.36901804 -1417.66459101 344.46579088 -1416.94888783 334.56276321 C-1416.56353351 329.22892001 -1416.1795676 323.8949854 -1415.79910278 318.56079102 C-1415.44219262 313.55685194 -1415.08163029 308.55318868 -1414.7184391 303.54970169 C-1414.58602404 301.71670705 -1414.45490162 299.88361844 -1414.32524681 298.05042648 C-1413.70229004 289.25252924 -1413.01341407 280.46952054 -1412.03027344 271.70361328 C-1411.92114813 270.68901944 -1411.92114813 270.68901944 -1411.80981827 269.65392876 C-1410.48823034 258.48823034 -1410.48823034 258.48823034 -1408 256 C-1397.54547555 254.43723716 -1387.05478806 255.17859006 -1376.55859375 255.75 C-1374.69507534 255.84516362 -1372.83151787 255.93956481 -1370.96792603 256.03327942 C-1366.92481632 256.23815797 -1362.88202007 256.44820523 -1358.83938599 256.66226196 C-1352.33336211 257.00665666 -1345.8267781 257.33950561 -1339.32006836 257.6706543 C-1330.93497276 258.09818678 -1322.55003434 258.52861994 -1314.16524982 258.96221066 C-1286.89795084 260.37172384 -1259.62824452 261.73352674 -1232.35860157 263.09680367 C-1223.62979194 263.53326366 -1214.90106717 263.97135653 -1206.1724565 264.41177827 C-1200.13272418 264.71651392 -1194.09294461 265.02029903 -1188.05312657 265.32333106 C-1184.5308484 265.50009876 -1181.00859732 265.67737086 -1177.48640823 265.85590553 C-1173.6343301 266.05114629 -1169.78213734 266.24405924 -1165.92993164 266.43676758 C-1164.80086112 266.49437759 -1163.6717906 266.55198761 -1162.50850582 266.61134338 C-1152.83869536 267.77080783 -1152.83869536 267.77080783 -1144.1796875 264.6484375 C-1143.14521484 263.87693359 -1143.14521484 263.87693359 -1142.08984375 263.08984375 C-1141.35894531 262.52394531 -1140.62804688 261.95804688 -1139.875 261.375 C-1138.26945916 260.17283471 -1136.66264158 258.97237305 -1135.0546875 257.7734375 C-1134.22420898 257.14920898 -1133.39373047 256.52498047 -1132.53808594 255.88183594 C-1128.42213081 252.83010622 -1124.21074099 249.9187858 -1120 247 C-1113.5981504 242.54270373 -1107.24516094 238.027032 -1100.9375 233.4375 C-1094.80051443 228.97411462 -1088.59107022 224.6367868 -1082.3125 220.375 C-1075.9662776 216.0667321 -1069.72068231 211.65663202 -1063.55737305 207.09106445 C-1056.13117937 201.59625797 -1048.55984359 196.30852251 -1041 191 C-1038.18628753 189.02255116 -1035.37377732 187.0434093 -1032.5625 185.0625 C-1031.51255859 184.32290039 -1031.51255859 184.32290039 -1030.44140625 183.56835938 C-1025.30495257 179.9417973 -1020.21138485 176.25882038 -1015.125 172.5625 C-1008.92462359 168.0590758 -1002.65285332 163.67893295 -996.3125 159.375 C-989.9662878 155.06671551 -983.72068317 150.65663267 -977.55737305 146.09106445 C-970.83747764 141.11886382 -963.99792626 136.32004483 -957.15722656 131.51611328 C-953.60070618 129.01656693 -950.05060227 126.50794239 -946.5 124 C-942.26403277 121.00841805 -938.02713382 118.01821166 -933.78515625 115.03515625 C-926.52765027 109.92768011 -919.30413676 104.77964151 -912.125 99.5625 C-905.92462292 95.05907532 -899.65284301 90.67894923 -893.3125 86.375 C-887.53017648 82.44933205 -881.81186787 78.46158754 -876.1875 74.3125 C-875.58574951 73.87244629 -874.98399902 73.43239258 -874.36401367 72.97900391 C-871.29068058 70.72419672 -868.2643252 68.42677078 -865.27734375 66.05859375 C-855.26847276 58.25281642 -855.26847276 58.25281642 -850.625 58.4375 C-848.515625 58.98828125 -848.515625 58.98828125 -846 60 C-844.81921875 60.46792969 -843.6384375 60.93585938 -842.421875 61.41796875 C-838.22385828 63.15762688 -834.11007073 65.06330717 -830 67 C-829.08323486 67.43022461 -829.08323486 67.43022461 -828.14794922 67.86914062 C-823.29683861 70.14605651 -823.29683861 70.14605651 -820.99755859 71.23291016 C-814.74387247 74.16771855 -808.39120499 76.8655942 -802.02270508 79.54052734 C-796.91074072 81.70152825 -791.86501234 83.9802876 -786.84375 86.34375 C-778.96219445 90.05139159 -770.99223977 93.53888505 -763 97 C-754.36766482 100.73831432 -745.77913267 104.53891952 -737.26745605 108.54528809 C-732.0619621 110.98916407 -726.80232276 113.27589971 -721.5 115.5 C-715.59164709 117.97830433 -709.74749086 120.56277434 -703.94921875 123.2890625 C-695.46032986 127.27995417 -686.8907618 131.08096446 -678.3125 134.875 C-675.10773167 136.29480366 -671.90342269 137.71564188 -668.69921875 139.13671875 C-667.92751343 139.47884903 -667.15580811 139.82097931 -666.36071777 140.17347717 C-660.77081548 142.65336619 -655.19419251 145.16144312 -649.625 147.6875 C-643.99280313 150.2393765 -638.33599291 152.73035251 -632.66015625 155.18359375 C-632.00553406 155.46657822 -631.35091187 155.74956268 -630.67645264 156.04112244 C-627.44113669 157.43860782 -624.20435667 158.83256818 -620.96533203 160.22143555 C-614.19562622 163.1360313 -607.49032195 166.14555299 -600.82247925 169.28411865 C-593.80534038 172.57882048 -586.71887875 175.71447942 -579.62957764 178.85012817 C-575.6462799 180.61198956 -571.66502923 182.37846659 -567.68359375 184.14453125 C-566.91106262 184.48707443 -566.13853149 184.82961761 -565.34259033 185.18254089 C-559.84396751 187.62185938 -554.35605604 190.0839611 -548.875 192.5625 C-547.39206986 193.22818273 -545.90898993 193.89353187 -544.42578125 194.55859375 C-541.26398458 195.97690517 -538.10729458 197.40586155 -534.95458984 198.84423828 C-531.10930665 200.59786656 -527.2576447 202.33689731 -523.40264893 204.06906128 C-521.85305935 204.76827816 -520.30561022 205.47225983 -518.76043701 206.18118286 C-516.58662752 207.17767675 -514.40577442 208.15691557 -512.22265625 209.1328125 C-511.568311 209.4374794 -510.91396576 209.7421463 -510.23979187 210.05604553 C-506.38341465 211.7553886 -504.01241723 212.3847223 -500 211 C-498.15309048 210.27027641 -496.32705194 209.48652239 -494.51953125 208.6640625 C-493.45162354 208.18259766 -492.38371582 207.70113281 -491.28344727 207.20507812 C-490.13803467 206.68365234 -488.99262207 206.16222656 -487.8125 205.625 C-485.36020121 204.5215397 -482.90734131 203.41948583 -480.453125 202.3203125 C-479.8291835 202.0405658 -479.205242 201.76081909 -478.56239319 201.47259521 C-472.43113273 198.7310437 -466.25398369 196.10250096 -460.0625 193.5 C-457.91145395 192.59506251 -455.76041232 191.6901145 -453.609375 190.78515625 C-452.53107422 190.33156738 -451.45277344 189.87797852 -450.34179688 189.41064453 C-430.8078794 181.16495669 -411.33751358 172.75819159 -391.93359375 164.2109375 C-382.79403085 160.18697793 -373.60590109 156.28430757 -364.40576172 152.40087891 C-346.7952717 144.96376949 -329.23025457 137.42147437 -311.70654297 129.78222656 C-304.29591086 126.55487132 -296.86895448 123.36657995 -289.4375 120.1875 C-279.36471542 115.87768527 -269.30231516 111.54480777 -259.25 107.1875 C-258.60711029 106.90887115 -257.96422058 106.63024231 -257.30184937 106.34317017 C-250.44395548 103.37023058 -243.59122729 100.38610356 -236.75 97.375 C-228.99938443 93.97575373 -221.20105183 90.69132779 -213.40405273 87.40014648 C-195.80440976 79.96767315 -178.24968292 72.43115372 -160.73730469 64.79541016 C-151.81319211 60.90840118 -142.86412063 57.08011193 -133.91455078 53.25219727 C-127.88961135 50.67335641 -121.87162197 48.08149463 -115.875 45.4375 C-109.04747201 42.43630855 -102.18303503 39.52626632 -95.3125 36.625 C-79.66350914 30.01640142 -64.04257919 23.35566065 -48.5 16.5 C-40.50951816 12.97795668 -32.5160833 9.46345511 -24.5 6 C-23.67048828 5.63841797 -22.84097656 5.27683594 -21.98632812 4.90429688 C-5.96475187 -1.98825062 -5.96475187 -1.98825062 0 0 Z " fill="#D9FFB6" transform="translate(1778,379)"/>
</svg>
